<svg xmlns="http://www.w3.org/2000/svg" width="21" height="21" viewBox="0 0 21 21" fill="none">
  <path d="M14.5466 18.1759H6.82965C6.24164 18.184 5.65797 18.0741 5.11319 17.8526C4.56842 17.6312 4.07363 17.3026 3.65811 16.8865C3.1809 16.3928 2.80636 15.8093 2.5562 15.1699C2.30604 14.5304 2.18522 13.8477 2.20074 13.1613V7.78363C2.16247 7.14623 2.25356 6.50767 2.4685 5.90638C2.68343 5.30509 3.01778 4.7535 3.45144 4.28479C3.8851 3.81608 4.40909 3.43994 4.9919 3.179C5.57469 2.91807 6.20427 2.77773 6.84271 2.76643H14.5352C15.1737 2.77773 15.8033 2.91807 16.386 3.179C16.9689 3.43994 17.4928 3.81608 17.9265 4.28479C18.3602 4.7535 18.6945 5.30509 18.9094 5.90638C19.1244 6.50767 19.2154 7.14623 19.1772 7.78363V13.1613C19.1923 13.8471 19.0712 14.5292 18.8211 15.1681C18.5709 15.8068 18.1966 16.3898 17.7199 16.883C17.3044 17.3 16.8094 17.6292 16.2643 17.8513C15.7192 18.0734 15.1351 18.1838 14.5466 18.1759ZM6.84097 16.87H14.5448C14.9619 16.8772 15.3762 16.8006 15.7631 16.6446C16.15 16.4887 16.5016 16.2565 16.797 15.9619C17.1522 15.5892 17.4301 15.1499 17.6145 14.6691C17.7989 14.1884 17.8862 13.676 17.8713 13.1613V7.78363C17.8713 5.63328 16.4688 4.07231 14.5352 4.07231H6.84271C4.90914 4.07231 3.50662 5.63328 3.50662 7.78363V13.1613C3.4922 13.6753 3.57971 14.1872 3.7641 14.6673C3.94848 15.1473 4.2261 15.5862 4.58093 15.9585C4.87612 16.2528 5.22742 16.4848 5.61402 16.6408C6.0006 16.7968 6.41459 16.8735 6.8314 16.8665L6.84097 16.87Z" fill="white"/>
  <path d="M10.711 11.8805C10.1569 11.8802 9.61945 11.6918 9.18659 11.346L5.67114 8.51221C5.53629 8.40347 5.45017 8.2456 5.43173 8.07336C5.41328 7.90111 5.46401 7.72859 5.57276 7.59374C5.68151 7.45891 5.83938 7.37279 6.01162 7.35434C6.18387 7.33588 6.35639 7.38662 6.49123 7.49537L10.0023 10.3265C10.2045 10.4881 10.4556 10.5762 10.7145 10.5762C10.9733 10.5762 11.2245 10.4881 11.4266 10.3265L14.902 7.50059C15.0363 7.39126 15.2087 7.33979 15.381 7.35751C15.5533 7.37523 15.7116 7.46067 15.8209 7.59505C15.9303 7.72943 15.9817 7.90174 15.9639 8.07406C15.9463 8.2464 15.8608 8.40463 15.7264 8.51395L12.2441 11.3451C11.8083 11.6918 11.2678 11.8805 10.711 11.8805Z" fill="white"/>
</svg>