<svg width="16" height="16" viewBox="0 0 16 16" fill="none" xmlns="http://www.w3.org/2000/svg">
<g id="Frame">
<path id="Vector" d="M10.993 13.7473C11.7463 13.7451 12.4682 13.4448 13.0009 12.9121C13.5336 12.3794 13.8339 11.6575 13.8361 10.9041V5.21838C13.8339 4.46501 13.5336 3.74314 13.0009 3.21043C12.4682 2.67771 11.7463 2.37744 10.993 2.37519H5.30721C4.55384 2.37744 3.83197 2.67771 3.29926 3.21043C2.76655 3.74314 2.46627 4.46501 2.46402 5.21838V10.9041C2.46627 11.6575 2.76655 12.3794 3.29926 12.9121C3.83197 13.4448 4.55384 13.7451 5.30721 13.7473H10.993ZM10.993 14.8844H5.30721C3.11801 14.8844 1.32693 13.0933 1.32693 10.9041V5.21838C1.32693 3.02918 3.11801 1.2381 5.30721 1.2381H10.993C13.1822 1.2381 14.9732 3.02918 14.9732 5.21838V10.9041C14.9732 13.0933 13.1822 14.8844 10.993 14.8844Z" fill="white"/>
<path id="Vector_2" d="M11.8463 10.9051C11.6776 10.9051 11.5127 10.9552 11.3725 11.0489C11.2322 11.1426 11.1229 11.2758 11.0584 11.4316C10.9938 11.5875 10.9769 11.759 11.0098 11.9244C11.0427 12.0899 11.124 12.2418 11.2432 12.3611C11.3625 12.4804 11.5145 12.5616 11.6799 12.5945C11.8454 12.6275 12.0169 12.6106 12.1727 12.546C12.3286 12.4815 12.4618 12.3721 12.5555 12.2319C12.6492 12.0916 12.6992 11.9267 12.6992 11.758C12.6995 11.646 12.6776 11.535 12.6348 11.4314C12.592 11.3278 12.5292 11.2337 12.45 11.1544C12.3707 11.0752 12.2766 11.0124 12.173 10.9696C12.0694 10.9268 11.9584 10.9049 11.8463 10.9051Z" fill="white"/>
<path id="Vector_3" d="M8.15034 10.3362C8.6002 10.3362 9.03994 10.2028 9.41398 9.95289C9.78802 9.70296 10.0795 9.34774 10.2517 8.93213C10.4238 8.51652 10.4689 8.0592 10.3811 7.61799C10.2934 7.17679 10.0767 6.77151 9.75865 6.45342C9.44056 6.13533 9.03528 5.9187 8.59407 5.83094C8.15287 5.74318 7.69555 5.78822 7.27994 5.96037C6.86433 6.13252 6.5091 6.42405 6.25918 6.79809C6.00926 7.17212 5.87586 7.61187 5.87586 8.06172C5.87651 8.66476 6.11635 9.24291 6.54275 9.66931C6.96916 10.0957 7.54731 10.3356 8.15034 10.3362ZM8.15034 11.4733C7.4756 11.4733 6.81601 11.2732 6.25498 10.8983C5.69395 10.5235 5.25668 9.99066 4.99846 9.36728C4.74025 8.74389 4.67269 8.05794 4.80432 7.39616C4.93596 6.73438 5.26088 6.12649 5.738 5.64938C6.21512 5.17226 6.823 4.84734 7.48478 4.7157C8.14656 4.58407 8.83251 4.65163 9.4559 4.90984C10.0793 5.16805 10.6121 5.60532 10.987 6.16635C11.3618 6.72738 11.5619 7.38698 11.5619 8.06172C11.5619 8.96653 11.2025 9.83428 10.5627 10.4741C9.9229 11.1139 9.05515 11.4733 8.15034 11.4733Z" fill="white"/>
</g>
</svg>
