<svg width="19" height="18" viewBox="0 0 19 18" fill="none" xmlns="http://www.w3.org/2000/svg">
<g id="Frame">
<path id="Vector" d="M10.2966 15.6919H7.40851V7.02756H10.2966V8.47161C10.9122 7.6884 11.8458 7.22148 12.8418 7.19868C14.6328 7.20862 16.078 8.66613 16.0728 10.4572V15.6919H13.1847V10.8182C13.0692 10.0114 12.3774 9.41285 11.5623 9.41458C11.2059 9.42584 10.8693 9.58195 10.6305 9.84679C10.3916 10.1117 10.2711 10.4625 10.2966 10.8182V15.6919ZM5.96446 15.6919H3.07635V7.02756H5.96446V15.6919ZM4.52041 5.58351C3.72288 5.58351 3.07635 4.93699 3.07635 4.13946C3.07635 3.34193 3.72288 2.6954 4.52041 2.6954C5.31794 2.6954 5.96446 3.34193 5.96446 4.13946C5.96446 4.52244 5.81232 4.88974 5.5415 5.16055C5.27069 5.43137 4.90339 5.58351 4.52041 5.58351Z" fill="white"/>
</g>
</svg>
