<svg xmlns="http://www.w3.org/2000/svg" width="22" height="21" viewBox="0 0 22 21" fill="none">
  <path fill-rule="evenodd" clip-rule="evenodd" d="M15.8826 8.24124C13.9734 6.51399 10.7375 4.48726 8.32859 3.51743C7.28127 3.1779 6.40372 3.21621 5.72553 3.63061C4.98292 4.08418 4.49974 4.97915 4.28557 6.31202C4.12887 7.71279 4.05226 9.18493 4.05835 10.6876C4.05226 12.1937 4.12887 13.6667 4.28819 15.0858C4.49016 16.3864 4.9655 17.2771 5.70289 17.7341C6.0816 17.9692 6.52299 18.0867 7.02357 18.0867C7.42143 18.0867 7.85586 18.0118 8.3251 17.863C8.33642 17.8595 8.34687 17.856 8.35645 17.8525C10.7401 16.8923 13.9761 14.8647 15.8783 13.1409C16.7785 12.3504 17.2347 11.5259 17.2355 10.6902C17.2355 9.85441 16.7785 9.0291 15.8826 8.24124Z" fill="#8150ED"/>
</svg>