<svg width="15" height="14" viewBox="0 0 15 14" fill="none" xmlns="http://www.w3.org/2000/svg">
<g id="Frame" clip-path="url(#clip0_0_405)">
<path id="Vector" d="M13.1388 2.44633C12.5612 2.72937 11.9952 2.84431 11.406 3.01818C10.7585 2.28749 9.79846 2.24705 8.876 2.59247C7.95354 2.93789 7.34935 3.78237 7.36264 4.75104V5.32866C5.48826 5.3766 3.81893 4.52288 2.74167 3.01818C2.74167 3.01818 0.326057 7.31163 5.05215 9.37201C3.97085 10.0923 2.89243 10.5781 1.58643 10.5272C3.4972 11.5687 5.57952 11.9268 7.38227 11.4035C9.45016 10.8028 11.1495 9.25302 11.8017 6.93156C11.9962 6.22551 12.0928 5.49609 12.0887 4.76375C12.0876 4.61992 12.9609 3.16258 13.1388 2.44575V2.44633Z" stroke="white" stroke-width="1.00367" stroke-linecap="round" stroke-linejoin="round"/>
</g>
<defs>
<clipPath id="clip0_0_405">
<rect width="13.8629" height="13.8629" fill="white" transform="translate(0.431183 0.129944)"/>
</clipPath>
</defs>
</svg>
